<svg width="32" height="32" viewBox="0 0 32 32" fill="none" xmlns="http://www.w3.org/2000/svg">
<path d="M8.51599 24.1749H21.1907L20.5853 22.2149L22.0333 23.4575L23.3604 24.6469L25.7782 26.6673V7.53398C25.7178 6.34465 24.6938 5.33398 23.4244 5.33398L8.52044 5.33665C7.25199 5.33665 6.22266 6.3491 6.22266 7.53843V21.974C6.22266 23.2282 7.25021 24.1749 8.51599 24.1749ZM17.892 10.3855L17.8627 10.3962L17.8733 10.3855H17.892ZM11.1089 11.5135C12.7382 10.3278 14.2484 10.3846 14.2484 10.3846L14.3702 10.5046C12.3764 10.9802 11.4724 11.8709 11.4724 11.8709C11.4724 11.8709 11.7142 11.7526 12.1364 11.5722C14.8218 10.5162 17.7542 10.5926 20.4689 11.9295C20.4689 11.9295 19.5631 11.0966 17.692 10.5633L17.8573 10.4006C18.116 10.4015 19.4849 10.4495 20.9498 11.5206C20.9498 11.5206 22.5889 14.3206 22.5889 17.7606C22.5347 17.6949 21.572 19.2415 19.0947 19.2949C19.0947 19.2949 18.6751 18.8202 18.3764 18.406C19.8253 17.99 20.3676 17.158 20.3676 17.158C19.892 17.4575 19.4582 17.6353 19.1062 17.8131C18.5649 18.0513 18.0227 18.1686 17.4813 18.2886C14.9178 18.7046 13.4787 18.0086 12.1187 17.4566L11.6538 17.2202C11.6538 17.2202 12.1951 18.0522 13.5862 18.4682C13.2209 18.8851 12.8591 19.3589 12.8591 19.3589C10.3827 19.3002 9.47955 17.7535 9.47955 17.7535C9.47955 14.3082 11.1089 11.5135 11.1089 11.5135Z" fill="currentcolor"/>
<path d="M18.0519 16.6844C18.6839 16.6844 19.1986 16.1511 19.1986 15.4933C19.1986 14.84 18.6866 14.3066 18.0519 14.3066V14.3093C17.4226 14.3093 16.9071 14.8409 16.9053 15.4986C16.9053 16.1511 17.4199 16.6844 18.0519 16.6844Z" fill="currentcolor"/>
<path d="M13.9467 16.6854C14.5787 16.6854 15.0933 16.1521 15.0933 15.4943C15.0933 14.841 14.5822 14.3076 13.9502 14.3076L13.9467 14.3103C13.3147 14.3103 12.8 14.8418 12.8 15.4996C12.8 16.1521 13.3147 16.6854 13.9467 16.6854Z" fill="currentcolor"/>
</svg>
