<svg width="32" height="32" viewBox="0 0 32 32" fill="none" xmlns="http://www.w3.org/2000/svg">
<path d="M26.6663 9.38598C25.873 9.73398 25.0277 9.96465 24.1463 10.0767C25.053 9.53532 25.745 8.68465 26.0703 7.65932C25.225 8.16332 24.2917 8.51932 23.297 8.71798C22.4943 7.86332 21.3503 7.33398 20.1023 7.33398C17.681 7.33398 15.7317 9.29932 15.7317 11.7087C15.7317 12.0553 15.761 12.3887 15.833 12.706C12.197 12.5287 8.97967 10.786 6.81834 8.13132C6.44101 8.78598 6.21967 9.53532 6.21967 10.342C6.21967 11.8567 6.99967 13.1993 8.16234 13.9767C7.45967 13.9633 6.77034 13.7593 6.18634 13.438C6.18634 13.4513 6.18634 13.4687 6.18634 13.486C6.18634 15.6113 7.70234 17.3767 9.69034 17.7833C9.33434 17.8807 8.94634 17.9273 8.54367 17.9273C8.26367 17.9273 7.98101 17.9113 7.71567 17.8527C8.28234 19.5847 9.89034 20.858 11.8023 20.8993C10.3143 22.0633 8.42501 22.7647 6.37967 22.7647C6.02101 22.7647 5.67701 22.7487 5.33301 22.7047C7.27034 23.954 9.56634 24.6673 12.0423 24.6673C20.0903 24.6673 24.4903 18.0007 24.4903 12.222C24.4903 12.0287 24.4837 11.842 24.4743 11.6567C25.3423 11.0407 26.0717 10.2713 26.6663 9.38598Z" fill="currentcolor"/>
</svg>
