<svg width="190" height="48" viewBox="0 0 190 48" fill="none" xmlns="http://www.w3.org/2000/svg">
<g clip-path="url(#clip0_69_515)">
<circle cx="24" cy="24" r="24" fill="#202939"/>
<path d="M13.049 21.8178C12.8464 21.0729 13.2951 20.3072 14.0511 20.1076L33.2159 15.0479C33.9719 14.8483 34.749 15.2904 34.9516 16.0353C35.1542 16.7802 34.7055 17.5459 33.9495 17.7455L14.7847 22.8052C14.0287 23.0048 13.2515 22.5627 13.049 21.8178Z" fill="white"/>
<path d="M13.0489 21.1059C13.2515 20.361 14.0286 19.9189 14.7846 20.1185L33.9494 25.1782C34.7054 25.3778 35.1541 26.1435 34.9515 26.8884C34.7489 27.6333 33.9718 28.0754 33.2158 27.8758L14.051 22.8161C13.295 22.6165 12.8463 21.8508 13.0489 21.1059Z" fill="white"/>
<path d="M13.049 31.9647C12.8464 31.2198 13.2951 30.4541 14.0511 30.2545L33.2159 25.1948C33.9719 24.9952 34.749 25.4373 34.9516 26.1822C35.1542 26.9271 34.7055 27.6928 33.9495 27.8924L14.7847 32.9521C14.0287 33.1517 13.2515 32.7096 13.049 31.9647Z" fill="white"/>
<path d="M68.4849 34.2149C67.2388 34.2149 66.1283 34.004 65.1534 33.5823C64.1786 33.1523 63.4072 32.5196 62.8392 31.6844C62.2797 30.8409 62 29.7907 62 28.5337C62 27.4753 62.1992 26.5863 62.5976 25.8668C62.996 25.1474 63.5386 24.5685 64.2252 24.1302C64.9118 23.692 65.6917 23.3612 66.5648 23.1379C67.4464 22.9146 68.3704 22.7575 69.3368 22.6665C70.4727 22.5508 71.3882 22.4433 72.0833 22.344C72.7784 22.2365 73.2828 22.0794 73.5965 21.8727C73.9101 21.6659 74.0669 21.36 74.0669 20.9548V20.8803C74.0669 20.0947 73.8126 19.4869 73.304 19.0569C72.8039 18.6269 72.0918 18.4119 71.1678 18.4119C70.193 18.4119 69.4173 18.6228 68.8409 19.0445C68.2645 19.458 67.883 19.979 67.6965 20.6074L62.6866 20.2105C62.9409 19.0528 63.4411 18.0522 64.1871 17.2087C64.933 16.3569 65.8952 15.7036 67.0735 15.2488C68.2602 14.7857 69.6335 14.5542 71.1933 14.5542C72.2783 14.5542 73.3167 14.6782 74.3085 14.9263C75.3088 15.1744 76.1947 15.5589 76.9661 16.0799C77.7459 16.6009 78.3605 17.2707 78.8098 18.0894C79.2591 18.8998 79.4837 19.8715 79.4837 21.0044V33.8552H74.3467V31.2131H74.1941C73.8804 31.8085 73.4608 32.3336 72.9353 32.7884C72.4097 33.235 71.7782 33.5864 71.0407 33.8428C70.3032 34.0908 69.4512 34.2149 68.4849 34.2149ZM70.0362 30.568C70.833 30.568 71.5366 30.4151 72.1469 30.1091C72.7573 29.7948 73.2362 29.3731 73.5838 28.8439C73.9313 28.3146 74.1051 27.7151 74.1051 27.0452V25.0233C73.9356 25.1309 73.7024 25.2301 73.4057 25.3211C73.1175 25.4037 72.7912 25.4823 72.4267 25.5567C72.0621 25.6229 71.6976 25.6849 71.3331 25.7428C70.9686 25.7924 70.638 25.8379 70.3413 25.8792C69.7056 25.9702 69.1503 26.1149 68.6756 26.3134C68.2009 26.5119 67.8321 26.7806 67.5694 27.1197C67.3066 27.4504 67.1752 27.8639 67.1752 28.3601C67.1752 29.0795 67.4422 29.6295 67.9763 30.0099C68.5188 30.382 69.2054 30.568 70.0362 30.568Z" fill="white"/>
<path d="M99.2203 20.2353L94.2613 20.533C94.1766 20.1195 93.9943 19.7474 93.7146 19.4166C93.4348 19.0776 93.0661 18.8088 92.6083 18.6104C92.159 18.4036 91.6208 18.3003 90.9935 18.3003C90.1542 18.3003 89.4464 18.4739 88.87 18.8212C88.2936 19.1603 88.0053 19.6151 88.0053 20.1857C88.0053 20.6405 88.1918 21.0251 88.5648 21.3393C88.9378 21.6535 89.5778 21.9058 90.4849 22.096L94.0197 22.7906C95.9186 23.171 97.3342 23.7829 98.2667 24.6264C99.1992 25.4699 99.6654 26.578 99.6654 27.9508C99.6654 29.1994 99.2882 30.2951 98.5337 31.2379C97.7877 32.1806 96.762 32.9166 95.4566 33.4458C94.1596 33.9668 92.6634 34.2273 90.968 34.2273C88.3826 34.2273 86.3227 33.7022 84.7883 32.652C83.2625 31.5935 82.3682 30.1546 82.1054 28.3353L87.4331 28.0624C87.5942 28.8314 87.9841 29.4186 88.603 29.8238C89.2218 30.2207 90.0144 30.4192 90.9808 30.4192C91.9302 30.4192 92.6931 30.2414 93.2695 29.8858C93.8544 29.522 94.1511 29.0547 94.1596 28.4841C94.1511 28.0045 93.9434 27.6117 93.5366 27.3057C93.1297 26.9915 92.5024 26.7517 91.6547 26.5863L88.2724 25.9289C86.3651 25.5567 84.9452 24.9117 84.0127 23.9938C83.0887 23.0759 82.6267 21.9058 82.6267 20.4834C82.6267 19.2595 82.9658 18.2052 83.6439 17.3203C84.3306 16.4355 85.2927 15.7533 86.5304 15.2736C87.7765 14.794 89.2345 14.5542 90.9045 14.5542C93.3713 14.5542 95.3125 15.0628 96.7281 16.0799C98.1523 17.097 98.983 18.4822 99.2203 20.2353Z" fill="white"/>
<path d="M112.749 14.8023V18.7716H100.987V14.8023H112.749ZM103.657 10.2375H109.074V28.0004C109.074 28.4883 109.15 28.8687 109.303 29.1416C109.455 29.4062 109.667 29.5922 109.939 29.6997C110.218 29.8072 110.54 29.861 110.905 29.861C111.159 29.861 111.414 29.8403 111.668 29.799C111.922 29.7494 112.117 29.7122 112.253 29.6873L113.105 33.6195C112.833 33.7022 112.452 33.7973 111.96 33.9048C111.469 34.0206 110.871 34.0908 110.167 34.1157C108.862 34.1653 107.718 33.9957 106.734 33.6071C105.759 33.2184 105.001 32.6147 104.458 31.7961C103.916 30.9774 103.649 29.9437 103.657 28.695V10.2375Z" fill="white"/>
<path d="M121.13 34.2149C119.884 34.2149 118.774 34.004 117.799 33.5823C116.824 33.1523 116.053 32.5196 115.485 31.6844C114.925 30.8409 114.646 29.7907 114.646 28.5337C114.646 27.4753 114.845 26.5863 115.243 25.8668C115.642 25.1474 116.184 24.5685 116.871 24.1302C117.557 23.692 118.337 23.3612 119.21 23.1379C120.092 22.9146 121.016 22.7575 121.982 22.6665C123.118 22.5508 124.034 22.4433 124.729 22.344C125.424 22.2365 125.928 22.0794 126.242 21.8727C126.556 21.6659 126.713 21.36 126.713 20.9548V20.8803C126.713 20.0947 126.458 19.4869 125.95 19.0569C125.449 18.6269 124.737 18.4119 123.813 18.4119C122.839 18.4119 122.063 18.6228 121.486 19.0445C120.91 19.458 120.529 19.979 120.342 20.6074L115.332 20.2105C115.587 19.0528 116.087 18.0522 116.833 17.2087C117.579 16.3569 118.541 15.7036 119.719 15.2488C120.906 14.7857 122.279 14.5542 123.839 14.5542C124.924 14.5542 125.962 14.6782 126.954 14.9263C127.954 15.1744 128.84 15.5589 129.612 16.0799C130.392 16.6009 131.006 17.2707 131.455 18.0894C131.905 18.8998 132.129 19.8715 132.129 21.0044V33.8552H126.992V31.2131H126.84C126.526 31.8085 126.106 32.3336 125.581 32.7884C125.055 33.235 124.424 33.5864 123.686 33.8428C122.949 34.0908 122.097 34.2149 121.13 34.2149ZM122.682 30.568C123.479 30.568 124.182 30.4151 124.792 30.1091C125.403 29.7948 125.882 29.3731 126.229 28.8439C126.577 28.3146 126.751 27.7151 126.751 27.0452V25.0233C126.581 25.1309 126.348 25.2301 126.051 25.3211C125.763 25.4037 125.437 25.4823 125.072 25.5567C124.708 25.6229 124.343 25.6849 123.979 25.7428C123.614 25.7924 123.284 25.8379 122.987 25.8792C122.351 25.9702 121.796 26.1149 121.321 26.3134C120.846 26.5119 120.478 26.7806 120.215 27.1197C119.952 27.4504 119.821 27.8639 119.821 28.3601C119.821 29.0795 120.088 29.6295 120.622 30.0099C121.164 30.382 121.851 30.568 122.682 30.568Z" fill="white"/>
<path d="M135.616 33.8552V14.8023H140.867V18.1266H141.071C141.427 16.9441 142.024 16.051 142.863 15.4473C143.703 14.8353 144.669 14.5294 145.763 14.5294C146.034 14.5294 146.326 14.5459 146.64 14.579C146.954 14.6121 147.229 14.6575 147.466 14.7154V19.4042C147.212 19.3298 146.86 19.2637 146.411 19.2058C145.962 19.1479 145.551 19.1189 145.178 19.1189C144.381 19.1189 143.669 19.2885 143.041 19.6275C142.423 19.9583 141.931 20.4214 141.566 21.0168C141.21 21.6122 141.032 22.2986 141.032 23.0759V33.8552H135.616Z" fill="white"/>
<path d="M149.551 33.8552V14.8023H154.968V33.8552H149.551ZM152.272 12.3462C151.467 12.3462 150.776 12.0857 150.199 11.5648C149.631 11.0355 149.347 10.4029 149.347 9.66691C149.347 8.9392 149.631 8.31485 150.199 7.79387C150.776 7.26462 151.467 7 152.272 7C153.077 7 153.764 7.26462 154.332 7.79387C154.908 8.31485 155.196 8.9392 155.196 9.66691C155.196 10.4029 154.908 11.0355 154.332 11.5648C153.764 12.0857 153.077 12.3462 152.272 12.3462Z" fill="white"/>
<path d="M168.979 14.8023V18.7716H157.217V14.8023H168.979ZM159.888 10.2375H165.304V28.0004C165.304 28.4883 165.381 28.8687 165.533 29.1416C165.686 29.4062 165.898 29.5922 166.169 29.6997C166.449 29.8072 166.771 29.861 167.135 29.861C167.39 29.861 167.644 29.8403 167.898 29.799C168.153 29.7494 168.348 29.7122 168.483 29.6873L169.335 33.6195C169.064 33.7022 168.682 33.7973 168.191 33.9048C167.699 34.0206 167.101 34.0908 166.398 34.1157C165.092 34.1653 163.948 33.9957 162.965 33.6071C161.99 33.2184 161.231 32.6147 160.689 31.7961C160.146 30.9774 159.879 29.9437 159.888 28.695V10.2375Z" fill="white"/>
<path d="M175.136 41C174.449 41 173.805 40.9463 173.203 40.8387C172.61 40.7395 172.118 40.6113 171.728 40.4542L172.949 36.5097C173.584 36.6999 174.157 36.8032 174.665 36.8198C175.182 36.8363 175.627 36.7205 176 36.4725C176.382 36.2244 176.691 35.8026 176.929 35.2072L177.246 34.4009L170.24 14.8023H175.937L179.98 28.7942H180.184L184.265 14.8023H190L182.409 35.9143C182.044 36.9397 181.548 37.8328 180.921 38.5936C180.302 39.3626 179.518 39.9539 178.569 40.3674C177.619 40.7891 176.475 41 175.136 41Z" fill="white"/>
</g>
<defs>
<clipPath id="clip0_69_515">
<rect width="190" height="48" fill="white"/>
</clipPath>
</defs>
</svg>
